<svg xmlns="http://www.w3.org/2000/svg" fill="#39812c" height="24" viewBox="0 -960 960 960" width="24"><path d="m425-301 275-275-53-53-222 222-112-112-53 53 165 165Zm55 211q-80.907 0-152.065-30.763-71.159-30.763-123.797-83.5Q151.5-257 120.75-328.087 90-399.175 90-480q0-80.907 30.763-152.065 30.763-71.159 83.5-123.797Q257-808.5 328.087-839.25 399.175-870 480-870q80.907 0 152.065 30.763 71.159 30.763 123.797 83.5Q808.5-703 839.25-631.913 870-560.825 870-480q0 80.907-30.763 152.065-30.763 71.159-83.5 123.797Q703-151.5 631.913-120.75 560.825-90 480-90Z"/></svg>